<svg width="43" height="48" viewBox="0 0 43 48" fill="none" xmlns="http://www.w3.org/2000/svg">
<g clip-path="url(#clip0_603_281084)">
<path fill-rule="evenodd" clip-rule="evenodd" d="M12.9448 12.3109C16.9088 14.7776 18.1182 19.9553 15.6547 23.8887C13.1687 27.822 7.9505 29.022 3.98644 26.5776C0.0223739 24.0887 -1.187 18.9109 1.27654 14.9776C3.76248 11.0442 8.98071 9.84422 12.9448 12.3109Z" fill="#CDE1A4"/>
<path fill-rule="evenodd" clip-rule="evenodd" d="M36.1469 27.8223C41.0516 30.8668 42.5521 37.2668 39.4839 42.1335C36.4157 47.0001 29.9657 48.489 25.061 45.4446C20.1563 42.4223 18.6782 36.0001 21.724 31.1335C24.7698 26.2668 31.2422 24.8001 36.1469 27.8223Z" fill="#F5B1B2"/>
<path fill-rule="evenodd" clip-rule="evenodd" d="M36.3933 1.26689C40.3573 3.73356 41.5667 8.91133 39.1032 12.8447C36.6172 16.778 31.399 17.978 27.4349 15.5336C23.4709 13.0891 22.2615 7.88911 24.725 3.95578C27.211 0.0224465 32.4292 -1.17755 36.3933 1.26689Z" fill="#B1A5CD"/>
<path fill-rule="evenodd" clip-rule="evenodd" d="M35.5869 17.5553C34.9893 17.6985 34.3727 17.7664 33.7546 17.7763L32.5044 26.6256C34.3312 26.6904 36.1657 27.2161 37.8265 28.2442C42.888 31.3776 44.4333 37.9998 41.2755 43.022C39.215 46.2664 35.6989 48.0442 32.0932 48.0442C30.1447 48.0442 28.1739 47.5109 26.3822 46.422C23.9411 44.9109 22.239 42.5331 21.5671 39.7553C20.9176 36.9553 21.4104 34.0887 22.9333 31.6665C23.0643 31.458 23.2015 31.2555 23.3443 31.0592L16.7901 25.8479C15.0824 27.7665 12.6491 28.7998 10.1677 28.7998C8.57757 28.7998 6.96507 28.3776 5.53173 27.4887C1.4109 24.9331 0.156733 19.5553 2.73225 15.4665C5.30777 11.3776 10.7276 10.1331 14.8484 12.6887C16.2362 13.5493 17.2989 14.7301 17.9996 16.0739L25.6297 12.7C24.432 10.1202 24.5266 7.01247 26.1583 4.42202C28.7338 0.333132 34.1536 -0.911312 38.2744 1.64424C42.3952 4.1998 43.6494 9.57757 41.0739 13.6665C39.8197 15.6442 37.8937 17.022 35.5869 17.5553ZM26.3394 12.6385C25.1268 10.2144 25.1702 7.24089 26.7182 4.77758C29.0921 0.999799 34.1312 -0.155756 37.9161 2.22202C41.7234 4.57758 42.8879 9.55535 40.514 13.3331C39.3718 15.1554 37.5577 16.422 35.4525 16.9109C34.8221 17.0573 34.1836 17.126 33.5491 17.1199C33.5345 17.1159 33.5195 17.1128 33.5041 17.1109C33.4658 17.1062 33.4276 17.1085 33.3908 17.1169C31.9611 17.0752 30.5568 16.6544 29.3161 15.8887C28.0478 15.104 27.0729 14.0284 26.4242 12.8031C26.42 12.7799 26.4134 12.7565 26.4046 12.7331C26.3863 12.6969 26.3644 12.6653 26.3394 12.6385ZM25.939 13.3035L18.2818 16.6688C19.367 19.2005 19.2301 22.1989 17.6479 24.7109C17.5107 24.9269 17.3656 25.1349 17.2131 25.3348L23.7518 30.5338C25.7833 28.0756 28.7592 26.7062 31.8203 26.6228L33.0722 17.7624C31.6216 17.6777 30.2182 17.2383 28.9577 16.4442C27.6547 15.6362 26.6383 14.5459 25.939 13.3035ZM32.1169 27.2887C33.9529 27.2889 35.8113 27.7778 37.4458 28.8442C42.1713 31.7776 43.627 37.9776 40.6708 42.6887C37.7145 47.3776 31.4661 48.822 26.7182 45.8887C24.4338 44.4664 22.8213 42.2442 22.2166 39.622C21.6119 36.9998 22.0598 34.3109 23.4932 32.022C25.4176 28.9579 28.7283 27.2914 32.1072 27.2887L32.1169 27.2887ZM3.26975 15.7998C4.81507 13.3553 7.48017 11.9998 10.1901 11.9998C11.6682 11.9998 13.1463 12.3998 14.4677 13.222C18.275 15.5776 19.4395 20.5553 17.0656 24.3331C14.6916 28.1109 9.67496 29.2665 5.86767 26.9109C2.06038 24.5553 0.895796 19.5776 3.26975 15.7998Z" fill="#302A3E"/>
</g>
<defs>
<clipPath id="clip0_603_281084">
<rect width="43" height="48" fill="white"/>
</clipPath>
</defs>
</svg>
