<svg xmlns="http://www.w3.org/2000/svg" width="118" height="52" viewBox="0 0 118 52" fill="none">
  <path
    d="M117.176 51.0145C117.72 50.9178 118.082 50.3985 117.986 49.8548C117.889 49.311 117.37 48.9487 116.826 49.0454L117.176 51.0145ZM3.14367 0.0401983C2.59715 -0.0393803 2.0896 0.339151 2.01002 0.885674L0.713215 9.79176C0.633636 10.3383 1.01218 10.8458 1.55869 10.9254C2.10521 11.005 2.61277 10.6265 2.69234 10.0799L3.84506 2.16342L11.7616 3.31613C12.3081 3.39571 12.8157 3.01718 12.8952 2.47065C12.9748 1.92413 12.5963 1.41658 12.0498 1.337L3.14367 0.0401983ZM73.9993 28.0296L74.8226 28.5971L73.9993 28.0296ZM61.4969 16.5296L61.8683 17.4581L61.4969 16.5296ZM73.1759 27.462C66.4098 37.2777 59.2648 40.9807 52.3142 41.1058C45.2913 41.2323 38.2089 37.7159 31.6007 32.5292C18.3748 22.1481 7.62827 5.56344 3.8012 0.431921L2.19797 1.6276C5.9007 6.5924 16.8676 23.5076 30.3659 34.1024C37.1198 39.4036 44.6522 43.2441 52.3502 43.1055C60.1205 42.9656 67.8024 38.7814 74.8226 28.5971L73.1759 27.462ZM116.826 49.0454C99.0472 52.2085 79.8038 46.1775 67.8031 38.2337C61.7754 34.2436 57.7607 29.893 56.5439 26.1561C55.9489 24.3286 56.0375 22.7042 56.8143 21.3014C57.6038 19.8758 59.1856 18.5313 61.8683 17.4581L61.1255 15.6012C58.1841 16.7779 56.1521 18.3689 55.0647 20.3325C53.9647 22.3189 53.9135 24.5375 54.6422 26.7753C56.0727 31.1687 60.5593 35.8371 66.6992 39.9014C79.0337 48.0663 98.7908 54.2855 117.176 51.0145L116.826 49.0454ZM61.8683 17.4581C63.1403 16.9492 64.8381 16.831 66.628 17.1147C68.4091 17.3969 70.1936 18.0639 71.6156 19.0274C73.0417 19.9936 74.0335 21.2071 74.3866 22.5639C74.7314 23.889 74.512 25.5239 73.1759 27.462L74.8226 28.5971C76.4162 26.2853 76.8425 24.0601 76.3221 22.0602C75.81 20.092 74.4256 18.5154 72.7375 17.3716C71.0453 16.2251 68.9775 15.462 66.941 15.1393C64.9134 14.818 62.8285 14.9199 61.1255 15.6012L61.8683 17.4581Z"
    fill="black" />
</svg>