<svg width="9" height="9" viewBox="0 0 9 9" fill="none" xmlns="http://www.w3.org/2000/svg">
<path fill-rule="evenodd" clip-rule="evenodd" d="M8.5902 0.119385H5.64755C5.32631 0.119385 5.16543 0.507782 5.39258 0.734936L6.37151 1.71386L4.28411 3.80125C4.01245 4.07291 4.01245 4.51336 4.28411 4.78502C4.55577 5.05667 4.99622 5.05667 5.26787 4.78502L7.35527 2.69762L8.33523 3.67758C8.56238 3.90473 8.95078 3.74385 8.95078 3.42261V0.479966C8.95078 0.280823 8.78934 0.119385 8.5902 0.119385ZM4.08066 0.583255C4.46484 0.583255 4.77629 0.894697 4.77629 1.27888C4.77629 1.66306 4.46484 1.9745 4.08066 1.9745H2.92129C2.40904 1.9745 1.99379 2.38976 1.99379 2.902V6.14825C1.99379 6.6605 2.40904 7.07575 2.92129 7.07575H6.16754C6.67978 7.07575 7.09504 6.6605 7.09504 6.14825V4.98888C7.09504 4.60469 7.40648 4.29325 7.79066 4.29325C8.17484 4.29325 8.48628 4.60469 8.48628 4.98888V6.14825C8.48628 7.42886 7.44814 8.467 6.16754 8.467H2.92129C1.64068 8.467 0.602539 7.42886 0.602539 6.14825V2.902C0.602539 1.62139 1.64068 0.583255 2.92129 0.583255H4.08066Z" fill="white"/>
</svg>
