<svg width="634" height="564" viewBox="0 0 634 564" fill="none" xmlns="http://www.w3.org/2000/svg">
<g filter="url(#filter0_d_208_9438)">
<rect x="446.842" y="66.6483" width="167" height="46" rx="23" transform="rotate(16.2105 446.842 66.6483)" fill="white"/>
<path d="M460.989 102.095C459.862 101.767 458.929 101.244 458.191 100.526C457.453 99.807 456.957 98.9676 456.701 98.0075C456.45 97.0332 456.471 96.0159 456.764 94.9556L457.799 95.2565C458.11 94.1861 458.6 93.3131 459.27 92.6372C459.959 91.9514 460.758 91.4887 461.667 91.2491C462.591 91.0137 463.56 91.0433 464.574 91.3381C465.588 91.6329 466.415 92.1253 467.054 92.8153C467.708 93.5093 468.134 94.3282 468.333 95.272C468.551 96.2058 468.504 97.2079 468.192 98.2782C467.885 99.3345 467.372 100.208 466.651 100.9C465.935 101.578 465.087 102.026 464.106 102.245C463.126 102.464 462.087 102.414 460.989 102.095ZM461.541 100.194C462.245 100.398 462.901 100.429 463.508 100.284C464.133 100.13 464.672 99.8283 465.123 99.3791C465.588 98.934 465.921 98.3664 466.122 97.6763C466.323 96.9862 466.344 96.3356 466.186 95.7244C466.045 95.1033 465.751 94.567 465.302 94.1157C464.87 93.6543 464.303 93.3213 463.599 93.1166C462.866 92.9037 462.173 92.8702 461.52 93.0163C460.871 93.1483 460.306 93.4348 459.827 93.8758C459.365 94.3068 459.035 94.8673 458.834 95.5574C458.633 96.2475 458.61 96.9052 458.764 97.5305C458.933 98.1598 459.253 98.7113 459.727 99.1849C460.204 99.6444 460.809 99.9807 461.541 100.194ZM456.764 94.9556L457.479 92.5745C457.976 90.9168 458.876 89.5288 460.178 88.4107C461.495 87.2966 463.236 86.5885 465.401 86.2862L469.861 85.6813C470.176 85.6505 470.433 85.7101 470.634 85.8602C470.839 85.9961 470.954 86.2051 470.979 86.4873C471 86.7836 470.949 87.0362 470.827 87.2451C470.724 87.4441 470.464 87.5748 470.049 87.6374L465.189 88.3553C464.072 88.5193 463.107 88.8191 462.293 89.2545C461.479 89.6899 460.805 90.2499 460.27 90.9344C459.753 91.609 459.351 92.3858 459.065 93.2648L458.39 95.4285L456.764 94.9556ZM475.247 106.24C474.079 105.9 473.108 105.351 472.336 104.592C471.582 103.823 471.071 102.926 470.804 101.901C470.555 100.867 470.596 99.779 470.928 98.6382C471.264 97.4833 471.798 96.5389 472.531 95.805C473.282 95.061 474.158 94.5674 475.161 94.3243C476.167 94.067 477.227 94.1001 478.339 94.4236C479.438 94.743 480.31 95.2638 480.955 95.986C481.605 96.6941 482.009 97.5371 482.167 98.5149C482.344 99.4828 482.271 100.523 481.947 101.636C481.87 101.903 481.712 102.102 481.476 102.232C481.244 102.348 480.987 102.364 480.705 102.283L472.192 99.8075L472.683 98.1175L481.133 100.574L480.095 100.914C480.286 100.206 480.327 99.5379 480.219 98.9109C480.115 98.2697 479.864 97.7155 479.465 97.2483C479.067 96.7811 478.515 96.4451 477.811 96.2404C477.008 96.007 476.267 95.9824 475.587 96.1666C474.921 96.3549 474.351 96.7159 473.875 97.2496C473.403 97.7693 473.054 98.4164 472.829 99.191C472.604 99.9655 472.579 100.707 472.755 101.415C472.932 102.123 473.278 102.743 473.796 103.275C474.313 103.807 474.973 104.19 475.776 104.424C476.212 104.55 476.678 104.602 477.174 104.578C477.688 104.544 478.116 104.463 478.46 104.333C478.716 104.24 478.964 104.228 479.203 104.297C479.461 104.357 479.659 104.491 479.797 104.699C479.975 104.98 480.034 105.249 479.974 105.507C479.915 105.764 479.738 105.95 479.446 106.063C478.856 106.304 478.168 106.44 477.38 106.471C476.606 106.505 475.895 106.429 475.247 106.24ZM487.766 109.88C486.639 109.552 485.706 109.006 484.966 108.241C484.244 107.466 483.757 106.568 483.503 105.548C483.268 104.517 483.313 103.445 483.636 102.333C483.968 101.192 484.509 100.25 485.26 99.5057C486.011 98.7618 486.887 98.2682 487.89 98.025C488.896 97.7678 489.956 97.8009 491.069 98.1244C491.899 98.3659 492.613 98.749 493.209 99.2735C493.809 99.784 494.291 100.436 494.656 101.229C494.788 101.512 494.791 101.765 494.665 101.988C494.539 102.211 494.323 102.377 494.016 102.487C493.778 102.57 493.545 102.556 493.318 102.444C493.095 102.318 492.914 102.128 492.774 101.873C492.297 100.94 491.544 100.325 490.516 100.026C489.798 99.8168 489.115 99.8016 488.467 99.9799C487.824 100.144 487.261 100.477 486.779 100.978C486.297 101.48 485.94 102.132 485.706 102.935C485.485 103.695 485.444 104.416 485.582 105.098C485.734 105.784 486.04 106.384 486.501 106.9C486.966 107.402 487.572 107.761 488.318 107.978C488.811 108.122 489.257 108.19 489.656 108.184C490.073 108.168 490.473 108.078 490.857 107.915C491.136 107.797 491.397 107.766 491.64 107.821C491.888 107.863 492.081 107.988 492.219 108.196C492.401 108.463 492.469 108.727 492.423 108.989C492.382 109.236 492.234 109.43 491.98 109.57C490.691 110.219 489.287 110.322 487.766 109.88ZM504.992 114.819C504.683 114.729 504.451 114.555 504.297 114.296C504.161 114.028 504.138 113.738 504.228 113.429L505.739 108.232C505.972 107.429 506.015 106.731 505.867 106.138C505.718 105.545 505.425 105.055 504.988 104.668C504.569 104.272 504.035 103.979 503.387 103.791C502.796 103.619 502.226 103.583 501.677 103.683C501.129 103.783 500.655 103.997 500.254 104.323C499.858 104.636 499.584 105.052 499.432 105.573L498.102 105.187C498.359 104.299 498.8 103.572 499.423 103.005C500.064 102.427 500.818 102.043 501.683 101.852C502.548 101.66 503.445 101.7 504.375 101.97C505.347 102.252 506.151 102.716 506.789 103.359C507.445 103.993 507.874 104.774 508.078 105.704C508.295 106.638 508.234 107.689 507.894 108.858L506.383 114.055C506.293 114.365 506.112 114.595 505.839 114.745C505.584 114.884 505.302 114.909 504.992 114.819ZM496.31 112.295C496 112.205 495.768 112.031 495.614 111.772C495.478 111.503 495.456 111.214 495.546 110.904L498.285 101.482C498.379 101.159 498.553 100.927 498.808 100.787C499.076 100.651 499.366 100.628 499.675 100.718C499.999 100.812 500.231 100.987 500.371 101.241C500.511 101.496 500.534 101.785 500.44 102.109L497.7 111.531C497.61 111.841 497.436 112.072 497.177 112.226C496.923 112.366 496.634 112.389 496.31 112.295ZM517.323 105.872C517.534 105.933 517.708 106.045 517.844 106.206C517.98 106.368 518.063 106.583 518.092 106.851L519.698 117.559C519.743 117.878 519.683 118.136 519.519 118.332C519.359 118.515 519.143 118.628 518.871 118.671C518.52 118.722 518.242 118.679 518.038 118.543C517.833 118.407 517.694 118.176 517.621 117.849L516.272 107.674L517.349 107.987L510.628 115.816C510.424 116.047 510.182 116.168 509.904 116.178C509.644 116.179 509.387 116.066 509.132 115.839C508.901 115.635 508.76 115.411 508.709 115.167C508.672 114.927 508.765 114.686 508.988 114.446L516.106 106.274C516.452 105.871 516.858 105.737 517.323 105.872ZM526.829 121.236C525.801 120.938 524.952 120.416 524.283 119.671C523.618 118.913 523.172 118.027 522.947 117.015C522.741 115.993 522.799 114.925 523.122 113.812C523.446 112.7 523.99 111.774 524.755 111.034C525.534 110.298 526.434 109.804 527.454 109.55C528.493 109.287 529.562 109.315 530.66 109.635C531.759 109.954 532.669 110.501 533.391 111.276C534.116 112.037 534.604 112.935 534.853 113.969C535.116 115.008 535.086 116.084 534.762 117.197L533.939 116.957C533.615 118.07 533.085 119 532.348 119.748C531.63 120.486 530.786 120.997 529.818 121.281C528.854 121.55 527.857 121.535 526.829 121.236ZM527.804 119.458C528.523 119.667 529.213 119.684 529.874 119.51C530.54 119.322 531.121 118.979 531.617 118.481C532.117 117.97 532.475 117.341 532.692 116.595C532.913 115.834 532.948 115.111 532.796 114.425C532.648 113.726 532.342 113.125 531.876 112.623C531.416 112.107 530.826 111.745 530.108 111.536C529.403 111.331 528.711 111.321 528.032 111.505C527.37 111.679 526.782 112.02 526.268 112.528C525.772 113.025 525.414 113.654 525.193 114.414C524.976 115.161 524.941 115.884 525.089 116.584C525.255 117.273 525.569 117.876 526.029 118.392C526.509 118.898 527.1 119.253 527.804 119.458ZM532.002 122.672C531.692 122.582 531.461 122.407 531.307 122.149C531.171 121.88 531.148 121.591 531.238 121.281L532.178 118.049L533.23 115.926L534.762 117.197L533.393 121.907C533.303 122.217 533.121 122.447 532.849 122.597C532.594 122.737 532.312 122.762 532.002 122.672ZM551.455 128.327C551.145 128.237 550.913 128.063 550.759 127.804C550.623 127.535 550.6 127.246 550.69 126.936L552.447 120.894C552.705 120.007 552.677 119.289 552.363 118.739C552.054 118.176 551.547 117.792 550.842 117.587C550.11 117.374 549.431 117.452 548.805 117.819C548.192 118.191 547.772 118.772 547.542 119.56L545.789 119.05C546.055 118.135 546.486 117.39 547.081 116.814C547.68 116.225 548.389 115.835 549.207 115.645C550.04 115.46 550.915 115.5 551.83 115.766C552.633 116 553.293 116.383 553.81 116.915C554.327 117.447 554.655 118.107 554.792 118.896C554.948 119.674 554.884 120.549 554.602 121.521L552.845 127.563C552.755 127.873 552.581 128.104 552.322 128.258C552.068 128.398 551.778 128.421 551.455 128.327ZM537.364 124.23C537.054 124.14 536.822 123.966 536.668 123.707C536.533 123.439 536.51 123.15 536.6 122.84L539.333 113.439C539.427 113.115 539.601 112.883 539.856 112.743C540.124 112.608 540.414 112.585 540.723 112.675C541.047 112.769 541.279 112.943 541.419 113.198C541.559 113.452 541.582 113.742 541.488 114.065L538.755 123.466C538.664 123.776 538.49 124.008 538.232 124.162C537.977 124.302 537.688 124.325 537.364 124.23ZM544.42 126.282C544.11 126.192 543.878 126.017 543.724 125.759C543.588 125.49 543.566 125.201 543.656 124.891L545.412 118.849C545.67 117.962 545.642 117.244 545.328 116.694C545.019 116.131 544.512 115.747 543.808 115.542C543.075 115.329 542.396 115.406 541.77 115.774C541.144 116.142 540.716 116.72 540.487 117.509L539.156 117.122C539.422 116.207 539.838 115.457 540.405 114.873C540.976 114.276 541.643 113.874 542.405 113.668C543.168 113.462 543.964 113.48 544.795 113.721C545.598 113.955 546.258 114.337 546.775 114.87C547.293 115.402 547.62 116.062 547.757 116.851C547.913 117.629 547.849 118.504 547.567 119.476L545.81 125.518C545.72 125.827 545.546 126.059 545.287 126.213C545.033 126.353 544.744 126.376 544.42 126.282ZM565.836 132.485C565.526 132.395 565.294 132.221 565.14 131.962C565.005 131.694 564.982 131.404 565.072 131.094L567.805 121.694C567.899 121.37 568.073 121.138 568.328 120.998C568.596 120.862 568.886 120.839 569.195 120.93C569.519 121.024 569.744 121.196 569.87 121.446C569.996 121.697 570.012 121.984 569.917 122.308L567.184 131.709C567.094 132.018 566.927 132.252 566.682 132.41C566.442 132.554 566.16 132.579 565.836 132.485ZM557.153 129.961C556.844 129.871 556.619 129.698 556.479 129.444C556.357 129.18 556.341 128.892 556.432 128.583L559.165 119.182C559.259 118.858 559.426 118.624 559.666 118.48C559.921 118.34 560.203 118.315 560.513 118.405C560.837 118.499 561.069 118.674 561.209 118.928C561.348 119.183 561.371 119.472 561.277 119.796L558.544 129.197C558.454 129.507 558.28 129.738 558.021 129.892C557.767 130.032 557.477 130.055 557.153 129.961ZM559.424 125.145L559.977 123.244L567.392 125.4L566.839 127.301L559.424 125.145ZM575.898 135.502C574.757 135.17 573.822 134.631 573.092 133.884C572.366 133.123 571.877 132.233 571.623 131.212C571.388 130.182 571.437 129.096 571.768 127.955C572.104 126.8 572.645 125.858 573.392 125.128C574.157 124.388 575.048 123.899 576.064 123.66C577.085 123.406 578.166 123.446 579.306 123.777C580.433 124.105 581.359 124.649 582.085 125.41C582.815 126.157 583.297 127.045 583.532 128.076C583.786 129.097 583.744 130.184 583.408 131.339C583.077 132.48 582.536 133.422 581.785 134.166C581.038 134.896 580.154 135.388 579.134 135.641C578.117 135.88 577.039 135.834 575.898 135.502ZM576.451 133.601C577.183 133.814 577.88 133.833 578.541 133.659C579.203 133.484 579.775 133.147 580.257 132.645C580.752 132.148 581.113 131.512 581.338 130.737C581.563 129.963 581.6 129.233 581.448 128.547C581.314 127.851 581.015 127.252 580.55 126.751C580.085 126.249 579.486 125.892 578.754 125.679C578.021 125.466 577.324 125.446 576.663 125.621C576.001 125.795 575.42 126.138 574.92 126.649C574.424 127.146 574.064 127.782 573.839 128.557C573.614 129.332 573.577 130.062 573.729 130.747C573.881 131.433 574.189 132.027 574.654 132.529C575.119 133.03 575.718 133.388 576.451 133.601Z" fill="black"/>
<rect x="456.333" y="34" width="85" height="46" rx="23" transform="rotate(16.2105 456.333 34)" fill="white"/>
<path d="M470.168 69.4935C469.211 69.2151 468.34 68.794 467.557 68.2303C466.788 67.6707 466.111 66.9776 465.527 66.1509C465.447 66.0055 465.397 65.8612 465.378 65.7181C465.362 65.5608 465.375 65.4118 465.416 65.271C465.506 64.9612 465.66 64.7463 465.878 64.6264C466.101 64.4925 466.341 64.4553 466.598 64.5149C466.86 64.5605 467.084 64.7096 467.27 64.9623C467.735 65.5708 468.247 66.094 468.807 66.5317C469.385 66.9595 470.033 67.2778 470.752 67.4866C471.583 67.7282 472.411 67.7935 473.238 67.6824C474.068 67.5574 474.844 67.2789 475.566 66.8471C476.301 66.4193 476.936 65.8632 477.471 65.1787C478.01 64.4801 478.411 63.6801 478.673 62.7788C478.931 61.8915 479.018 61.0155 478.933 60.1509C478.852 59.2721 478.616 58.4551 478.225 57.6998C477.848 56.9486 477.342 56.2975 476.708 55.7466C476.074 55.1957 475.341 54.7995 474.51 54.5579C473.595 54.2918 472.828 54.1986 472.209 54.2783C471.59 54.358 470.948 54.5454 470.281 54.8405C469.985 54.9681 469.697 54.9839 469.42 54.8879C469.16 54.782 468.957 54.6158 468.809 54.3895C468.679 54.1532 468.653 53.9012 468.731 53.6336C468.767 53.5069 468.812 53.4053 468.865 53.329C468.922 53.2386 468.991 53.1594 469.072 53.0913C469.157 53.009 469.268 52.9421 469.405 52.8903C470.396 52.4759 471.32 52.2404 472.176 52.1839C473.047 52.1315 474.017 52.2609 475.088 52.5721C476.243 52.9079 477.249 53.4373 478.108 54.1605C478.967 54.8837 479.65 55.7391 480.157 56.7266C480.683 57.7041 481 58.7663 481.11 59.9131C481.237 61.05 481.129 62.2099 480.785 63.3929C480.437 64.59 479.903 65.6412 479.181 66.5465C478.474 67.4559 477.634 68.1893 476.663 68.7469C475.709 69.2945 474.676 69.6433 473.564 69.7933C472.455 69.9292 471.323 69.8293 470.168 69.4935ZM472.358 61.8822C472.076 61.8004 471.864 61.6392 471.72 61.3988C471.594 61.1484 471.57 60.8894 471.648 60.6218C471.73 60.3402 471.889 60.1344 472.125 60.0045C472.375 59.8788 472.641 59.8568 472.923 59.9387L480.042 62.0085L479.477 63.952L472.358 61.8822ZM496.806 77.0317C496.497 76.9416 496.265 76.7673 496.111 76.5087C495.975 76.2402 495.952 75.9509 496.042 75.6411L497.799 69.5993C498.057 68.712 498.029 67.9936 497.715 67.4442C497.405 66.8807 496.899 66.4966 496.194 66.2919C495.462 66.0789 494.783 66.1564 494.156 66.5242C493.544 66.8961 493.124 67.4764 492.894 68.265L491.141 67.7553C491.407 66.8398 491.838 66.0944 492.433 65.519C493.032 64.9294 493.741 64.5398 494.559 64.3502C495.392 64.1647 496.266 64.205 497.182 64.4712C497.985 64.7045 498.645 65.0874 499.162 65.6196C499.679 66.1518 500.007 66.8121 500.144 67.6005C500.3 68.3789 500.236 69.2539 499.954 70.2257L498.197 76.2676C498.107 76.5774 497.933 76.8093 497.674 76.9632C497.42 77.1031 497.13 77.1259 496.806 77.0317ZM482.716 72.9352C482.406 72.8451 482.174 72.6708 482.02 72.4122C481.884 72.1437 481.862 71.8544 481.952 71.5446L484.685 62.1438C484.779 61.8199 484.953 61.588 485.208 61.4482C485.476 61.3124 485.766 61.2896 486.075 61.3797C486.399 61.4738 486.631 61.6482 486.771 61.9027C486.911 62.1572 486.934 62.4464 486.84 62.7703L484.106 72.1711C484.016 72.4809 483.842 72.7128 483.583 72.8667C483.329 73.0066 483.04 73.0294 482.716 72.9352ZM489.772 74.9865C489.462 74.8965 489.23 74.7221 489.076 74.4635C488.94 74.195 488.917 73.9058 489.008 73.5959L490.764 67.5541C491.022 66.6668 490.994 65.9485 490.68 65.399C490.371 64.8355 489.864 64.4514 489.16 64.2467C488.427 64.0338 487.748 64.1112 487.122 64.479C486.495 64.8468 486.068 65.425 485.838 66.2137L484.508 65.8268C484.774 64.9114 485.19 64.1618 485.757 63.5782C486.328 62.9805 486.995 62.5786 487.757 62.3726C488.519 62.1666 489.316 62.1844 490.147 62.426C490.95 62.6594 491.61 63.0422 492.127 63.5744C492.645 64.1067 492.972 64.767 493.109 65.5553C493.265 66.3337 493.201 67.2088 492.919 68.1805L491.162 74.2224C491.072 74.5322 490.898 74.7641 490.639 74.918C490.385 75.0579 490.096 75.0807 489.772 74.9865ZM506.685 79.9723C505.544 79.6407 504.609 79.1015 503.879 78.3547C503.153 77.5938 502.664 76.7031 502.41 75.6825C502.175 74.6519 502.224 73.5663 502.555 72.4255C502.891 71.2707 503.432 70.3283 504.179 69.5984C504.944 68.8586 505.835 68.3691 506.851 68.13C507.872 67.8769 508.953 67.9161 510.093 68.2478C511.22 68.5753 512.146 69.1195 512.872 69.8804C513.602 70.6272 514.084 71.5159 514.319 72.5464C514.572 73.567 514.531 74.6547 514.195 75.8096C513.864 76.9503 513.323 77.8927 512.572 78.6367C511.825 79.3665 510.941 79.8581 509.921 80.1112C508.904 80.3503 507.826 80.304 506.685 79.9723ZM507.237 78.0711C507.97 78.284 508.667 78.3033 509.328 78.1291C509.99 77.9549 510.562 77.617 511.044 77.1156C511.539 76.6183 511.9 75.9823 512.125 75.2077C512.35 74.4331 512.387 73.703 512.235 73.0173C512.101 72.3216 511.802 71.7229 511.337 71.2211C510.872 70.7193 510.273 70.362 509.541 70.1491C508.808 69.9361 508.111 69.9168 507.45 70.091C506.788 70.2653 506.207 70.6081 505.707 71.1195C505.211 71.6168 504.851 72.2528 504.626 73.0274C504.4 73.802 504.364 74.5321 504.516 75.2178C504.668 75.9035 504.976 76.4972 505.441 76.999C505.906 77.5008 506.505 77.8581 507.237 78.0711Z" fill="black"/>
</g>
<g clip-path="url(#clip0_208_9438)">
<path d="M115.779 129.615C115.851 129.745 115.88 129.898 115.822 130.1C115.74 130.258 115.659 130.416 115.529 130.487C115.4 130.558 115.29 130.563 115.179 130.567C115.069 130.571 114.935 130.532 114.82 130.426L113.428 129.33L109.459 131.52L109.601 133.306C109.605 133.416 109.567 133.551 109.528 133.685C109.466 133.776 109.361 133.89 109.274 133.938C109.102 134.033 108.948 134.061 108.79 133.979C108.656 133.94 108.498 133.858 108.403 133.684C108.355 133.598 108.331 133.554 108.326 133.444L107.632 124.844C107.618 124.513 107.743 124.331 108.002 124.188C108.261 124.046 108.505 124.08 108.754 124.226L115.684 129.441C115.664 129.508 115.755 129.571 115.779 129.615ZM112.494 128.659L108.934 125.878L109.345 130.396L112.494 128.659Z" fill="#302A3E"/>
<path d="M69.6163 108.983C69.3482 108.905 69.0993 108.76 68.9559 108.5L59.8261 91.9564C59.6827 91.6966 59.6495 91.4324 59.7696 91.1402C59.8897 90.848 60.0576 90.6423 60.3595 90.4757C60.6615 90.3091 60.992 90.2963 61.3272 90.3938L81.7712 98.3791L73.932 84.1738C73.7886 83.914 73.7554 83.6499 73.8755 83.3576C73.9956 83.0654 74.1635 82.8598 74.4223 82.717C74.7242 82.5504 74.9877 82.518 75.299 82.5722C75.5672 82.6503 75.8161 82.7954 75.9595 83.0553L85.0892 99.5992C85.2326 99.859 85.2659 100.123 85.1458 100.415C85.0688 100.684 84.8578 100.913 84.5558 101.08C84.2107 101.27 83.9041 101.326 83.6552 101.181L63.1681 93.2198L70.9833 107.382C71.1267 107.642 71.16 107.906 71.0399 108.198C70.9629 108.466 70.7519 108.696 70.4499 108.862C70.1911 109.005 69.9276 109.038 69.6163 108.983Z" fill="#302A3E"/>
<path d="M87.235 140.902C86.9668 140.824 86.7179 140.678 86.5745 140.419L77.4208 123.831C77.2774 123.571 77.2442 123.307 77.3643 123.015C77.4413 122.747 77.6523 122.517 77.9542 122.351C78.2562 122.184 78.5867 122.171 78.9219 122.269L99.3659 130.254L91.5267 116.049C91.3833 115.789 91.3501 115.525 91.4702 115.232C91.5903 114.94 91.7582 114.735 92.017 114.592C92.319 114.425 92.5825 114.393 92.8937 114.447C93.1619 114.525 93.4108 114.67 93.5542 114.93L102.684 131.474C102.827 131.734 102.861 131.998 102.741 132.29C102.664 132.559 102.453 132.788 102.151 132.955C101.805 133.145 101.499 133.201 101.25 133.056L80.8059 125.071L88.6212 139.233C88.7646 139.493 88.7978 139.757 88.6777 140.049C88.6008 140.318 88.3898 140.547 88.0878 140.714C87.8097 140.923 87.5463 140.956 87.235 140.902Z" fill="#302A3E"/>
<path d="M55.6319 125.343C55.4308 125.285 55.3159 125.179 55.2203 125.005C55.1247 124.832 55.0723 124.635 55.1539 124.477C55.2116 124.276 55.3171 124.161 55.5328 124.042L61.4858 120.758C61.6583 120.662 61.8547 120.611 62.0559 120.669C62.257 120.728 62.3718 120.834 62.4674 121.007C62.563 121.18 62.5916 121.334 62.5339 121.535C62.4761 121.737 62.3706 121.851 62.155 121.97L56.1589 125.278C55.9863 125.374 55.833 125.402 55.6319 125.343ZM57.6873 129.068C57.4862 129.009 57.3713 128.903 57.2757 128.73C57.1801 128.557 57.1277 128.36 57.2093 128.202C57.267 128 57.3725 127.886 57.5882 127.767L63.5411 124.482C63.7137 124.387 63.9101 124.335 64.1113 124.394C64.3124 124.452 64.4272 124.558 64.5228 124.731C64.6184 124.905 64.647 125.058 64.5893 125.26C64.5315 125.461 64.426 125.576 64.2103 125.695L58.2574 128.979C58.0417 129.098 57.8453 129.15 57.6873 129.068Z" fill="#302A3E"/>
<path d="M98.421 101.735C98.2198 101.677 98.105 101.57 98.0094 101.397C97.9138 101.224 97.8613 101.027 97.943 100.869C98.0007 100.668 98.1062 100.553 98.3219 100.434L104.275 97.1494C104.447 97.0542 104.644 97.0024 104.845 97.0609C105.046 97.1194 105.161 97.2255 105.256 97.3988C105.352 97.572 105.381 97.7257 105.323 97.9271C105.265 98.1284 105.16 98.2431 104.944 98.3621L98.9911 101.646C98.7754 101.765 98.6221 101.794 98.421 101.735ZM100.476 105.46C100.275 105.401 100.16 105.295 100.065 105.122C99.9692 104.948 99.9167 104.751 99.9984 104.593C100.056 104.392 100.162 104.277 100.377 104.158L106.33 100.874C106.503 100.779 106.699 100.727 106.9 100.785C107.101 100.844 107.216 100.95 107.312 101.123C107.407 101.297 107.436 101.45 107.378 101.652C107.321 101.853 107.215 101.968 106.999 102.087L101.046 105.371C100.831 105.49 100.634 105.542 100.476 105.46Z" fill="#302A3E"/>
<path d="M89.4633 109.051L73.5456 117.833C73.2005 118.024 72.7983 117.907 72.6071 117.56C72.4159 117.214 72.5313 116.811 72.8764 116.621L88.7509 107.862C89.096 107.672 89.4982 107.789 89.6894 108.136C89.8806 108.482 89.8083 108.861 89.4633 109.051Z" fill="#302A3E"/>
<path d="M119.891 65.4835C120.906 65.4882 121.869 65.8046 122.73 66.3462C123.616 66.931 124.333 67.7215 124.931 68.8042L128.683 75.6037C128.826 75.8636 128.86 76.1277 128.783 76.3961C128.706 76.6646 128.495 76.894 128.236 77.0368C127.934 77.2034 127.67 77.2358 127.359 77.1815C127.091 77.1035 126.842 76.9584 126.699 76.6985L122.946 69.899C122.325 68.773 121.545 68.0734 120.539 67.7808C119.534 67.4882 118.566 67.5701 117.531 68.1413C116.452 68.7363 115.781 69.5588 115.449 70.5892C115.118 71.6196 115.294 72.6524 115.891 73.7351L115.915 73.7784L119.667 80.5779C119.811 80.8377 119.844 81.1019 119.767 81.3703C119.69 81.6388 119.479 81.8682 119.22 82.011C118.918 82.1776 118.655 82.21 118.343 82.1557C118.075 82.0777 117.826 81.9325 117.683 81.6727L113.931 74.8732C113.309 73.7472 112.529 73.0476 111.524 72.755C110.518 72.4624 109.55 72.5443 108.515 73.1155C107.437 73.7105 106.741 74.4896 106.41 75.5201C106.078 76.5505 106.187 77.5638 106.737 78.5599L110.585 85.5326C110.728 85.7924 110.761 86.0566 110.684 86.325C110.607 86.5934 110.396 86.8228 110.137 86.9656C109.835 87.1322 109.572 87.1646 109.261 87.1104C108.992 87.0324 108.744 86.8872 108.6 86.6274L102.506 75.5836C102.362 75.3238 102.329 75.0596 102.449 74.7674C102.526 74.499 102.737 74.2696 103.039 74.103C103.341 73.9364 103.605 73.904 103.873 73.982C104.141 74.06 104.347 74.229 104.49 74.4888L104.777 75.0085C104.965 74.227 105.31 73.5279 105.857 72.8872C106.361 72.2704 106.998 71.6925 107.775 71.2641C108.724 70.7405 109.663 70.5049 110.655 70.4663C111.603 70.4514 112.518 70.6813 113.375 71.1124C113.51 70.1339 113.846 69.2138 114.408 68.3957C114.969 67.5775 115.755 66.8611 116.747 66.3137C117.85 65.7621 118.875 65.4788 119.891 65.4835Z" fill="#302A3E"/>
<path d="M137.621 89.7683C137.889 89.8463 138.138 89.9915 138.282 90.2513L147.411 106.795C147.555 107.055 147.588 107.319 147.468 107.612C147.391 107.88 147.18 108.109 146.921 108.252C146.619 108.419 146.356 108.451 146.044 108.397C145.733 108.343 145.527 108.174 145.384 107.914L138.047 94.6181L138.271 111.951C138.223 112.373 137.992 112.67 137.647 112.86C137.216 113.098 136.818 113.092 136.431 112.797L122.119 103.688L129.361 116.811C129.504 117.071 129.537 117.335 129.417 117.627C129.34 117.895 129.129 118.125 128.827 118.291C128.569 118.434 128.262 118.49 127.994 118.412C127.682 118.358 127.477 118.189 127.333 117.929L118.18 101.342C118.036 101.082 118.003 100.818 118.123 100.526C118.243 100.234 118.411 100.028 118.67 99.8852C119.058 99.671 119.456 99.6777 119.839 99.8618L136.347 110.301L136.145 90.8655C136.193 90.4433 136.399 90.1035 136.788 89.8893C137.046 89.7465 137.31 89.7141 137.621 89.7683Z" fill="#302A3E"/>
<path d="M131.524 85.8453L115.649 94.6036C115.304 94.794 114.902 94.677 114.711 94.3305C114.519 93.984 114.635 93.5814 114.98 93.391L130.854 84.6326C131.2 84.4422 131.602 84.5593 131.793 84.9057C131.984 85.2522 131.869 85.6549 131.524 85.8453Z" fill="#302A3E"/>
<path d="M49.4144 147.926C49.3713 147.95 49.4144 147.926 49.4144 147.926C49.0693 148.117 48.6479 148.067 48.3319 147.902L30.2447 135.622C29.7901 135.308 29.6519 134.65 29.9638 134.195C30.2757 133.741 30.932 133.605 31.3867 133.919L47.928 145.131C47.9193 140.22 47.3359 126.927 41.2104 121.945C38.8799 120.067 36.0783 119.579 32.5661 120.557C32.0199 120.688 31.455 120.379 31.3216 119.831C31.1881 119.283 31.4953 118.718 32.0415 118.586C36.1669 117.497 39.7012 118.089 42.4911 120.391C50.8323 127.145 49.9432 146.335 49.9327 147.132C49.9466 147.463 49.7164 147.76 49.4144 147.926Z" fill="#302A3E"/>
</g>
<path d="M252.218 120.114C241.26 106.643 227.003 115.654 221.433 120.094C219.888 121.328 217.843 121.685 215.941 121.153C192.044 114.459 169.445 131.287 166.68 155.586C163.972 179.308 185.623 178.256 185.623 178.256C208.54 174.595 220.524 160.105 224.783 153.82C228.672 158.839 236.384 159.851 242.195 161.805C242.565 161.929 242.935 162.039 243.318 162.143C244.188 161.929 245.142 161.903 245.882 162.176C248.544 163.162 251.705 163.786 252.997 166.694C253.296 167.376 253.51 168.018 253.601 168.674C254.802 171.44 255.094 174.647 256.198 177.438C256.516 178.25 257.113 178.944 257.84 179.49C258.743 177.919 259.502 176.27 260.58 174.809C262.3 172.472 264.345 170.959 267.078 169.972C267.325 169.882 267.572 169.83 267.825 169.791C267.845 169.628 267.858 169.466 267.858 169.304L268.825 169.752C268.825 169.752 268.864 169.752 268.877 169.752C268.838 169.297 266.04 137.103 252.218 120.114Z" fill="#CDE1A4"/>
<path d="M474.043 191.916C476.562 197.057 479.075 199.206 479.231 197.317C480.445 182.522 478.549 154.937 448.452 151.029C448.452 151.029 432.715 145.485 415.472 149.257C399.178 152.821 386.414 165.551 382.266 181.71C381.935 182.989 381.591 184.372 381.234 185.858C378.507 197.155 364.387 202.601 364.387 202.601C364.387 202.601 342.801 210.872 347.034 235.691C347.034 235.691 347.573 239.93 352.279 249.883C356.986 259.835 344.859 281.966 343.671 291.847C342.463 301.936 344.34 306.727 349.585 313.316H350.312C351.747 313.784 353.688 310.947 355.149 309.778C362.465 303.935 370.1 300.293 378.533 296.229C382.019 294.548 388.92 292.672 391.738 290.003C392.218 289.549 391.835 286.517 392.238 283.94C392.497 283.752 392.77 283.557 393.03 283.362C394.335 279.103 398.918 276.532 402.677 274.403C403.488 273.111 404.092 271.709 404.397 270.177C405.092 266.678 404.67 261.62 404.319 258.147C403.858 253.596 403.449 250.629 404.3 246.137C404.761 243.709 405.637 240.742 403.066 240.06C397.795 238.671 392.926 234.172 392.043 228.998L392.127 228.829C391.9 228.251 391.79 227.641 391.848 227.024C392.309 222.103 394.51 217.819 399.463 216.202C400.372 215.904 401.275 215.923 402.118 216.163C404.144 215.923 405.916 216.644 407.903 218.598C410.279 220.935 413.713 222.305 416.667 221.324C417.797 219.312 419.426 217.682 420.822 215.878C420.887 215.696 420.952 215.52 421.017 215.332C422.562 210.84 424.133 206.769 424.217 201.946C424.237 200.771 425.178 200.173 426.093 200.167C426.723 199.979 427.418 200.069 427.859 200.466C431.839 199.914 435.792 198.213 439.019 194.473C450.049 181.697 451.425 171.141 457.073 169.726C461.78 168.551 465.63 174.796 474.017 191.916H474.043Z" fill="#B1A5CD"/>
<path d="M497.48 320.678C497.447 319.432 497.064 318.244 496.792 317.036C496.688 316.575 496.746 316.101 496.941 315.699C496.097 312.206 495.162 308.726 493.604 305.526C492.156 302.533 490.261 299.761 488.443 296.95C488.086 296.43 487.729 295.905 487.359 295.398C485.249 292.522 483.022 289.542 481.905 286.108C481.464 284.751 481.328 283.472 481.341 282.219C479.964 277.376 479.828 273.027 481.464 268.132C481.341 267.236 481.925 266.067 482.022 265.178C482.25 263.159 482.814 260.965 483.451 258.881C483.282 258.627 483.171 258.316 483.165 257.933C483.145 256.531 482.886 255.161 482.756 253.771C482.704 253.239 482.964 252.752 483.353 252.408C483.003 250.24 482.561 248.084 481.944 245.949C481.023 242.761 480.036 237.016 477.802 234.432C477.601 234.205 477.439 233.964 477.29 233.724C476.53 233.854 475.803 234.146 475.186 234.581C475.043 239.216 473.739 243.339 471.583 247.539C469.415 251.772 467.565 256.251 464.825 260.16C462.339 263.711 458.943 266.132 454.847 267.716C451.821 268.885 448.361 268.723 445.213 268.703C444.946 268.904 445.316 270.04 445.115 270.294C445.375 272.241 445.278 274.137 445.005 276.013C445.083 276.13 445.174 276.24 445.265 276.351C445.745 276.266 446.264 276.396 446.712 276.864C447.654 277.85 448.959 278.175 450.108 278.85C451.283 279.538 452.224 280.447 453.061 281.505C453.977 282.661 454.704 283.765 455.152 284.946C455.171 284.933 455.191 284.927 455.217 284.914C455.197 284.933 455.178 284.953 455.165 284.972C455.223 285.128 455.275 285.29 455.327 285.452C455.399 285.569 455.463 285.686 455.535 285.803C455.704 286.102 455.84 286.407 455.944 286.718C456.606 285.537 456.087 286.193 455.704 287.699C455.808 288.419 455.509 288.432 455.347 289.159C455.314 289.296 455.983 290.049 455.937 290.179C455.976 290.347 456.028 290.51 456.113 290.646C456.113 290.692 456.126 290.737 456.132 290.776C456.178 290.795 456.23 290.815 456.275 290.841C457.496 291.542 458.768 292.133 460.027 292.756C460.339 292.912 460.566 293.165 460.716 293.464C464.338 295.931 468.019 298.352 471.33 301.241C474.375 303.896 477.653 306.623 480.471 309.551C484.45 312.401 488.384 315.309 492.117 318.477C492.793 318.425 493.513 318.737 493.831 319.334C493.844 319.36 493.896 319.484 493.948 319.568C493.968 319.587 493.987 319.607 494.013 319.633C494.156 319.795 494.312 319.938 494.474 320.081C494.812 320.386 495.162 320.678 495.474 321.009C496.181 321.197 496.87 321.197 497.519 321.055C497.486 320.925 497.473 320.788 497.467 320.646L497.48 320.678Z" fill="#B1A5CD"/>
<path d="M85.815 347.016L60.6 297.683L22.6477 219.669C22.4659 219.292 22.1932 218.974 21.8492 218.734C20.382 217.715 18.35 218.565 18.0578 220.331L18.0319 220.474C17.954 220.954 18.0189 221.454 18.2266 221.896L60.5286 314.381C62.6839 314.446 64.7938 314.705 66.7934 315.686C67.1894 315.88 67.4426 316.153 67.5854 316.458C69.0526 317.348 69.0461 317.575 69.137 319.464C69.2084 321.074 67.0595 322.905 65.7676 323.879C66.7999 324.08 70.0394 325.463 70.9807 325.93C73.558 327.215 73.3308 330.072 72.0973 332.409C71.526 333.493 70.4938 333.87 69.4421 334.24C69.9615 334.084 71.3183 334.818 71.8442 334.694C74.6552 334.019 77.3039 335.564 78.1868 338.297C78.7452 340.031 76.856 340.998 75.5965 342.303C74.1488 341.394 75.3758 342.361 75.4083 342.394C76.421 343.322 78.4141 345.698 78.4725 347.029C78.5309 348.314 77.2845 348.873 76.3951 349.769C76.2652 349.898 76.6872 350.905 76.5444 351.015C76.6093 351.164 76.6547 351.249 76.6547 351.249C77.6026 353.307 80.0436 354.203 82.1015 353.248L83.8219 352.45C85.8734 351.502 86.7693 349.068 85.8214 347.01L85.815 347.016Z" fill="#CDE1A4"/>
<path d="M265.047 381.826H391.018C394.452 381.826 397.497 384.04 398.562 387.306L426.497 473.325C428.159 478.447 424.341 483.705 418.953 483.705H292.3C288.84 483.705 285.782 481.466 284.737 478.168L257.484 392.149C255.861 387.033 259.678 381.82 265.047 381.82V381.826Z" fill="#F5B1B2"/>
<path d="M297.215 304.714C300.097 304.714 302.434 302.377 302.434 299.495C302.434 296.612 300.097 294.275 297.215 294.275C294.332 294.275 291.995 296.612 291.995 299.495C291.995 302.377 294.332 304.714 297.215 304.714Z" stroke="#302A3E" stroke-width="1.2984" stroke-linecap="round" stroke-linejoin="round"/>
<path d="M314.159 310.94C317.042 310.94 319.379 308.603 319.379 305.72C319.379 302.838 317.042 300.501 314.159 300.501C311.276 300.501 308.939 302.838 308.939 305.72C308.939 308.603 311.276 310.94 314.159 310.94Z" stroke="#302A3E" stroke-width="1.2984" stroke-linecap="round" stroke-linejoin="round"/>
<path d="M308.692 290.782C311.575 290.782 313.912 288.445 313.912 285.563C313.912 282.68 311.575 280.343 308.692 280.343C305.81 280.343 303.473 282.68 303.473 285.563C303.473 288.445 305.81 290.782 308.692 290.782Z" stroke="#302A3E" stroke-width="1.2984" stroke-linecap="round" stroke-linejoin="round"/>
<path d="M301.986 301.604L309.199 304.084" stroke="#302A3E" stroke-width="1.2984" stroke-linecap="round" stroke-linejoin="round"/>
<path d="M310.128 290.86L312.816 299.521" stroke="#302A3E" stroke-width="1.2984" stroke-linecap="round" stroke-linejoin="round"/>
<path d="M305.304 289.705L301.006 294.859" stroke="#302A3E" stroke-width="1.2984" stroke-linecap="round" stroke-linejoin="round"/>
<path d="M451.107 202.497C452.107 202.095 452.944 201.29 453.172 200.238C453.379 199.277 453.094 198.128 451.036 197.421C448.173 196.44 442.726 198.544 439.824 199.842C439.065 200.18 439.097 201.277 439.883 201.563C442.596 202.549 447.543 203.926 451.101 202.497H451.107Z" stroke="#302A3E" stroke-width="1.2984" stroke-linecap="round" stroke-linejoin="round"/>
<path d="M466.656 198.011C465.857 198.167 465.117 198.641 464.799 199.388C464.507 200.069 464.552 200.965 465.974 201.783C467.961 202.919 472.304 202.147 474.641 201.602C475.251 201.459 475.387 200.641 474.849 200.316C472.979 199.193 469.506 197.46 466.656 198.005V198.011Z" stroke="#302A3E" stroke-width="1.2984" stroke-linecap="round" stroke-linejoin="round"/>
<path d="M476.44 212.294C476.44 212.294 470.227 207.522 464.793 212.924" stroke="#302A3E" stroke-width="1.2984" stroke-linecap="round" stroke-linejoin="round"/>
<path d="M434.43 211.086C434.43 211.086 445.09 206.841 450.9 212.748" stroke="#302A3E" stroke-width="1.2984" stroke-linecap="round" stroke-linejoin="round"/>
<path d="M442.116 216.304C443.909 216.196 445.265 214.481 445.145 212.474C445.025 210.466 443.473 208.925 441.68 209.033C439.887 209.14 438.531 210.855 438.651 212.863C438.772 214.871 440.323 216.411 442.116 216.304Z" fill="black"/>
<path d="M471.444 213.348C471.565 211.678 470.414 210.234 468.873 210.121C467.332 210.009 465.984 211.272 465.863 212.942C465.741 214.612 466.892 216.057 468.433 216.169C469.975 216.281 471.322 215.018 471.444 213.348Z" fill="black"/>
<path d="M460.742 215.585C460.742 215.585 460.32 219.552 461.514 225.44C462.345 229.537 465.306 234.756 464.241 235.957C461.969 238.522 454.522 236.522 453.23 235.185" stroke="#302A3E" stroke-width="1.2984" stroke-linecap="round" stroke-linejoin="round"/>
<path d="M461.08 247.929C461.08 247.929 452.237 252.733 443.097 243.696" stroke="#302A3E" stroke-width="1.2984" stroke-linecap="round" stroke-linejoin="round"/>
<path d="M408.507 195.817C408.507 195.817 428.009 206.711 439.039 193.935C450.069 181.158 451.445 170.602 457.093 169.187C461.8 168.012 465.65 174.257 474.038 191.377C476.556 196.518 479.069 198.667 479.225 196.778C480.439 181.983 478.543 154.398 448.446 150.49C448.446 150.49 432.709 144.946 415.467 148.718C399.172 152.282 386.408 165.013 382.26 181.171C381.929 182.45 381.585 183.833 381.228 185.32C378.501 196.616 364.381 202.062 364.381 202.062C364.381 202.062 342.795 210.333 347.028 235.152C347.028 235.152 347.567 239.392 352.273 249.344C356.98 259.296 344.853 281.427 343.665 291.308C342.457 301.397 344.334 306.188 349.579 312.777" stroke="#302A3E" stroke-width="1.2984" stroke-linecap="round" stroke-linejoin="round"/>
<path d="M457.1 169.187C457.1 169.187 459.398 153.84 443.94 149.244" stroke="#302A3E" stroke-width="1.2984" stroke-linecap="round" stroke-linejoin="round"/>
<path d="M476.277 232.685C476.277 232.685 485.847 245.65 482.62 262.191C479.394 278.733 478.991 280.148 485.847 292.451C492.709 304.76 496.74 310.81 497.545 321.301" stroke="#302A3E" stroke-width="1.2984" stroke-linecap="round" stroke-linejoin="round"/>
<path d="M424.405 200.141C424.405 200.141 422.88 221.065 414.025 222.025C412.7 222.168 411.395 221.532 410.61 220.454C408.922 218.15 404.696 213.859 397.885 216.39C389.212 219.617 390.355 235.49 400.171 239.119C400.171 239.119 403.871 240.735 408.506 240.8" stroke="#302A3E" stroke-width="1.2984" stroke-linecap="round" stroke-linejoin="round"/>
<path d="M400.133 222.09C400.133 222.09 406.157 224.888 406.047 232.685" stroke="#302A3E" stroke-width="1.2984" stroke-linecap="round" stroke-linejoin="round"/>
<path d="M404.339 240.807V278.46C404.339 279.713 404.534 280.953 404.93 282.141C406.26 286.141 418.284 294.762 423.354 298.261C424.633 299.144 426.133 298.709 427.515 297.988C438.539 292.25 443.155 289.406 444.589 285.238C445.018 283.998 445.232 282.7 445.232 281.388V268.709" stroke="#302A3E" stroke-width="1.2984" stroke-linecap="round" stroke-linejoin="round"/>
<path d="M419.875 252.811C419.875 252.811 430.769 268.748 448.823 268.852C466.877 268.956 475.148 240.002 477.368 227.394C479.589 214.787 479.225 196.785 479.225 196.785" stroke="#302A3E" stroke-width="1.2984" stroke-linecap="round" stroke-linejoin="round"/>
<path d="M404.34 273.085C404.34 273.085 397.082 276.753 392.563 283.953C391.512 285.628 391.486 287.75 392.466 289.471C395.426 294.671 402.749 306.188 412.442 312.018C414.467 313.238 417.129 312.232 417.817 309.966C418.856 306.551 420.907 301.819 424.79 298.761C424.79 298.761 430.035 305.402 433.307 310.992C433.956 312.102 435.417 312.42 436.469 311.68C441.377 308.239 453.64 298.657 455.776 287.445C455.977 286.4 455.802 285.309 455.237 284.401C454.134 282.622 451.485 279.512 445.233 275.916" stroke="#302A3E" stroke-width="1.2984" stroke-linecap="round" stroke-linejoin="round"/>
<path d="M401.989 279.674L407.423 285.608" stroke="#302A3E" stroke-width="1.2984" stroke-linecap="round" stroke-linejoin="round"/>
<path d="M392.465 289.464C392.465 289.464 366.731 300.89 339.075 320.347C334.375 323.651 330.752 328.261 328.597 333.584C325.215 341.926 321.3 356.709 320.015 381.826" stroke="#302A3E" stroke-width="1.2984" stroke-linecap="round" stroke-linejoin="round"/>
<path d="M455.27 289.464L493.131 318.549C500.941 324.547 506.836 332.682 510.108 341.972C517.742 363.636 531.427 404.328 534.089 424.771C534.517 428.082 532.771 431.269 529.772 432.737C523.001 436.041 509.4 441.241 491.495 440.878" stroke="#302A3E" stroke-width="1.2984" stroke-linecap="round" stroke-linejoin="round"/>
<path d="M491.897 354.612C491.897 354.612 489.014 374.977 489.274 395.343C489.78 435.515 492.903 450.018 487.859 466.157C487.859 466.157 479.802 479.557 431.787 479.083" stroke="#302A3E" stroke-width="1.2984" stroke-linecap="round" stroke-linejoin="round"/>
<path d="M265.047 381.826H391.018C394.452 381.826 397.497 384.04 398.562 387.306L426.497 473.325C428.159 478.447 424.341 483.705 418.953 483.705H292.3C288.84 483.705 285.782 481.466 284.737 478.168L257.484 392.149C255.861 387.033 259.678 381.82 265.047 381.82V381.826Z" stroke="#302A3E" stroke-width="1.2984" stroke-linecap="round" stroke-linejoin="round"/>
<path d="M414.999 437.911H469.311C471.557 437.911 472.583 440.722 470.856 442.163L431.158 479.674C428.418 482.264 424.795 483.706 421.03 483.706H416.323" stroke="#302A3E" stroke-width="1.2984" stroke-linecap="round" stroke-linejoin="round"/>
<path d="M416.927 443.864H442.116C444.479 443.864 445.479 446.87 443.589 448.285L423.295 463.463" stroke="#302A3E" stroke-width="1.2984" stroke-linecap="round" stroke-linejoin="round"/>
<path d="M360.939 359.435C360.939 359.435 364.166 367.907 363.562 381.826" stroke="#302A3E" stroke-width="1.2984" stroke-linecap="round" stroke-linejoin="round"/>
<path d="M490.184 402.094C490.184 402.094 509.27 403.198 526.604 394.836" stroke="#302A3E" stroke-width="1.2984" stroke-linecap="round" stroke-linejoin="round"/>
<path d="M512.989 439.599C513.21 451.213 517.183 462.301 518.514 473.773" stroke="#302A3E" stroke-width="1.2984" stroke-linecap="round" stroke-linejoin="round"/>
<path d="M324.053 440.384C327.638 440.384 330.545 437.477 330.545 433.892C330.545 430.307 327.638 427.4 324.053 427.4C320.467 427.4 317.561 430.307 317.561 433.892C317.561 437.477 320.467 440.384 324.053 440.384Z" fill="white" stroke="#302A3E" stroke-width="1.2984" stroke-linecap="round" stroke-linejoin="round"/>
<path d="M345.112 448.123C348.698 448.123 351.604 445.216 351.604 441.631C351.604 438.045 348.698 435.139 345.112 435.139C341.527 435.139 338.62 438.045 338.62 441.631C338.62 445.216 341.527 448.123 345.112 448.123Z" fill="white" stroke="#302A3E" stroke-width="1.2984" stroke-linecap="round" stroke-linejoin="round"/>
<path d="M338.321 423.07C341.907 423.07 344.813 420.163 344.813 416.578C344.813 412.993 341.907 410.086 338.321 410.086C334.736 410.086 331.829 412.993 331.829 416.578C331.829 420.163 334.736 423.07 338.321 423.07Z" fill="white" stroke="#302A3E" stroke-width="1.2984" stroke-linecap="round" stroke-linejoin="round"/>
<path d="M329.986 436.521L338.952 439.599" stroke="#302A3E" stroke-width="1.2984" stroke-linecap="round" stroke-linejoin="round"/>
<path d="M340.107 423.161L343.444 433.931" stroke="#302A3E" stroke-width="1.2984" stroke-linecap="round" stroke-linejoin="round"/>
<path d="M334.108 421.719L328.765 428.134" stroke="#302A3E" stroke-width="1.2984" stroke-linecap="round" stroke-linejoin="round"/>
<path d="M205.21 182.794C206.008 182.067 206.508 181.028 206.359 179.957C206.222 178.983 205.554 178.003 203.379 178.062C200.354 178.139 195.978 182.009 193.712 184.229C193.115 184.813 193.531 185.826 194.368 185.82C197.257 185.8 202.373 185.372 205.216 182.794H205.21Z" stroke="#302A3E" stroke-width="1.2984" stroke-linecap="round" stroke-linejoin="round"/>
<path d="M223.368 169.271C222.452 169.836 221.764 170.771 221.719 171.849C221.673 172.829 222.154 173.92 224.303 174.257C227.295 174.731 232.301 171.725 234.936 169.96C235.625 169.499 235.404 168.421 234.586 168.272C231.742 167.765 226.64 167.252 223.368 169.265V169.271Z" stroke="#302A3E" stroke-width="1.2984" stroke-linecap="round" stroke-linejoin="round"/>
<path d="M205.045 195.047C206.838 194.94 208.194 193.225 208.074 191.217C207.953 189.209 206.402 187.669 204.609 187.776C202.816 187.884 201.46 189.598 201.58 191.606C201.701 193.614 203.252 195.155 205.045 195.047Z" fill="black"/>
<path d="M235.565 185.577C237.358 185.47 238.714 183.755 238.594 181.747C238.474 179.74 236.923 178.199 235.129 178.306C233.336 178.414 231.98 180.129 232.101 182.137C232.221 184.144 233.772 185.685 235.565 185.577Z" fill="black"/>
<path d="M349.793 243.696C349.793 243.696 346.794 240.833 310.659 236.535L281.88 232.445L271.525 192.902" stroke="#302A3E" stroke-width="1.2984" stroke-linecap="round" stroke-linejoin="round"/>
<path d="M267.079 192.902C267.079 192.902 275.284 193.844 277.167 185.774C279.05 177.704 275.421 170.304 267.884 169.635C260.353 168.96 257.931 181.288 257.931 181.288L252.764 167.544C251.738 164.811 249.362 162.818 246.499 162.266C240.319 161.078 229.548 158.501 224.984 154.307" stroke="#302A3E" stroke-width="1.2984" stroke-linecap="round" stroke-linejoin="round"/>
<path d="M227.003 150.334C227.003 150.334 214.675 173.608 185.623 178.25C185.623 178.25 163.972 179.302 166.68 155.58C169.452 131.28 192.05 114.453 215.941 121.146C217.85 121.678 219.888 121.328 221.433 120.088C226.997 115.647 241.253 106.636 252.218 120.107C266.137 137.214 268.877 169.765 268.877 169.765" stroke="#302A3E" stroke-width="1.2984" stroke-linecap="round" stroke-linejoin="round"/>
<path d="M182.402 178.055C182.402 178.055 191.634 217.617 213.681 237.015C230.495 251.811 250.263 243.105 259.677 230.958" stroke="#302A3E" stroke-width="1.2984" stroke-linecap="round" stroke-linejoin="round"/>
<path d="M216.811 189.474C216.811 189.474 218.726 193.714 220.141 201.173C220.92 205.302 221.641 208.47 222.128 210.483C222.517 212.093 224.088 213.118 225.718 212.82C227.347 212.521 229.801 211.762 232.748 210.048" stroke="#302A3E" stroke-width="1.2984" stroke-linecap="round" stroke-linejoin="round"/>
<path d="M268.091 175.147C268.091 175.147 265.267 177.906 267.825 185.839" stroke="#302A3E" stroke-width="1.2984" stroke-linecap="round" stroke-linejoin="round"/>
<path d="M194.621 193.357C194.621 193.357 201.379 187.507 209.903 188.364" stroke="#302A3E" stroke-width="1.2984" stroke-linecap="round" stroke-linejoin="round"/>
<path d="M226.75 184.073C226.75 184.073 230.684 177.211 243.545 178.574" stroke="#302A3E" stroke-width="1.2984" stroke-linecap="round" stroke-linejoin="round"/>
<path d="M224.783 225.765C224.783 225.765 239.643 228.589 244.824 214.735" stroke="#302A3E" stroke-width="1.2984" stroke-linecap="round" stroke-linejoin="round"/>
<path d="M281.874 232.445C281.874 232.445 281.27 257.868 259.684 257.868C259.684 257.868 246.921 260.731 237.111 244.52" stroke="#302A3E" stroke-width="1.2984" stroke-linecap="round" stroke-linejoin="round"/>
<path d="M240.027 248.701C240.027 248.701 190.824 284.959 184.371 297.034C177.917 309.109 155.585 404.873 155.585 404.873" stroke="#302A3E" stroke-width="1.2984" stroke-linecap="round" stroke-linejoin="round"/>
<path d="M209.649 342.465L220.692 354.268C222.796 356.521 224.243 359.293 224.886 362.305C229.716 385.111 247.874 459.399 252.263 480.732" stroke="#302A3E" stroke-width="1.2984" stroke-linecap="round" stroke-linejoin="round"/>
<path d="M290.223 233.789C294.735 246.487 285.426 261.386 269.429 267.073C253.433 272.76 236.807 267.073 232.295 254.382" stroke="#302A3E" stroke-width="1.2984" stroke-linecap="round" stroke-linejoin="round"/>
<path d="M223.471 358.286C223.471 358.286 207.501 446.272 191.894 460.815C176.294 475.35 167.952 480.998 147.508 464.593C127.39 448.447 96.8577 424.226 79.2254 370.147C78.8099 368.875 79.8097 367.953 81.0756 367.518C87.4897 365.298 93.4883 362.181 100.448 356.566C101.214 355.949 101.746 355.073 102.707 355.28C106.979 356.183 118.943 361.376 139.835 389.811C139.835 389.811 155.37 407.035 166.465 416.578" stroke="#302A3E" stroke-width="1.2984" stroke-linecap="round" stroke-linejoin="round"/>
<path d="M81.8691 377.769C81.8691 377.769 106.448 377.347 109.83 358.462" stroke="#302A3E" stroke-width="1.2984" stroke-linecap="round" stroke-linejoin="round"/>
<path d="M101.22 354.982C101.22 354.982 97.5328 343.803 96.0007 337.051C94.4686 330.306 96.3967 326.255 86.373 317.776C76.3494 309.291 80.0238 302.935 76.3494 301.007C72.5321 299.008 67.3125 305.545 67.5072 310.168" stroke="#302A3E" stroke-width="1.2984" stroke-linecap="round" stroke-linejoin="round"/>
<path d="M80.8036 367.018C80.8036 367.018 77.3174 365.772 69.0271 360.377C60.8861 355.079 50.5898 350.132 47.0516 324.132C46.7335 321.775 45.3637 316.666 50.3301 314.783C53.3359 313.647 58.2893 313.602 63.2687 314.186C65.3331 314.426 67.2742 315.452 68.4947 317.133C69.5075 318.529 70.0268 320.334 68.4298 322.197C67.3262 323.483 65.6577 324.132 63.9633 324.132H53.8098" stroke="#302A3E" stroke-width="1.2984" stroke-linecap="round" stroke-linejoin="round"/>
<path d="M65.4243 324.132C65.4243 324.132 69.8064 324.45 71.5203 326.112C73.3316 327.865 74.2404 333.805 67.9886 334.532C61.7368 335.259 57.4326 335.214 57.4326 335.214" stroke="#302A3E" stroke-width="1.2984" stroke-linecap="round" stroke-linejoin="round"/>
<path d="M67.9887 334.538C67.9887 334.538 78.7589 333.195 78.2785 339.174C77.8436 344.523 62.2822 344.744 62.2822 344.744" stroke="#302A3E" stroke-width="1.2984" stroke-linecap="round" stroke-linejoin="round"/>
<path d="M75.5327 342.641C75.5327 342.641 79.5058 345.036 77.7465 347.99C75.9871 350.944 73.8123 352.034 66.9697 352.281" stroke="#302A3E" stroke-width="1.2984" stroke-linecap="round" stroke-linejoin="round"/>
<path d="M54.582 300.501C54.582 300.501 58.0358 308.934 60.2885 313.803" stroke="#302A3E" stroke-width="1.2984" stroke-linecap="round" stroke-linejoin="round"/>
<path d="M76.1295 350.126L76.6488 351.249C77.5967 353.307 80.0377 354.203 82.0891 353.248L83.816 352.45C85.8675 351.502 86.7634 349.068 85.8155 347.01L60.6006 297.677" stroke="#302A3E" stroke-width="1.2984" stroke-linecap="round" stroke-linejoin="round"/>
<path d="M54.5819 300.501L18.2266 221.902C18.0189 221.461 17.954 220.961 18.0319 220.48L18.0578 220.337C18.35 218.572 20.382 217.721 21.8492 218.74C22.1868 218.981 22.4659 219.299 22.6477 219.675L60.6 297.696" stroke="#302A3E" stroke-width="1.2984" stroke-linecap="round" stroke-linejoin="round"/>
<g clip-path="url(#clip1_208_9438)">
<path d="M281.377 68.11C280.444 67.6916 279.728 67.208 279.194 66.5718C279.042 66.39 278.976 66.1737 278.991 66.0066C279.013 65.7558 279.16 65.516 279.467 65.3744C279.687 65.2673 279.904 65.202 280.113 65.2203C280.405 65.2458 280.645 65.3931 280.794 65.6167C281.176 66.0711 281.648 66.4493 282.299 66.7167C282.949 66.9841 283.649 67.1716 284.444 67.241C285.614 67.3433 286.507 67.2528 287.125 66.9278C287.743 66.6029 288.076 66.1687 288.127 65.5837C288.174 65.0404 287.922 64.5551 287.37 64.1278C286.817 63.7006 285.919 63.3695 284.684 63.0509C283.075 62.6577 281.899 62.1339 281.156 61.4794C280.413 60.8249 280.061 60.0362 280.134 59.2003C280.229 58.1138 280.765 57.2763 281.778 56.7753C282.749 56.2706 283.99 56.0422 285.37 56.1627C286.457 56.2577 287.404 56.5089 288.169 56.9126C288.934 57.3164 289.563 57.8345 290.01 58.5052C290.117 58.7251 290.186 58.8996 290.171 59.0668C290.149 59.3175 290.006 59.5155 289.698 59.6571C289.566 59.7297 289.395 59.7569 289.227 59.7423C288.893 59.7131 288.611 59.5621 288.379 59.3312C287.658 58.426 286.565 57.9095 285.144 57.7853C284.224 57.7049 283.499 57.81 282.926 58.0968C282.354 58.3837 282.024 58.776 281.977 59.3193C281.929 59.8626 282.144 60.3024 282.616 60.6805C283.088 61.0587 283.986 61.3898 285.306 61.7157C287.036 62.1616 288.295 62.6928 288.993 63.3854C289.691 64.078 290.001 64.8631 289.921 65.7825C289.859 66.493 289.595 67.1016 289.088 67.6047C288.58 68.1078 287.917 68.4709 287.055 68.6904C286.235 68.9135 285.301 69.0003 284.256 68.909C283.256 68.7795 282.267 68.5247 281.377 68.11Z" fill="#302A3E"/>
<path d="M294.664 54.4061C294.436 54.1334 294.336 53.8299 294.369 53.4538C294.402 53.0777 294.553 52.7961 294.863 52.6127C295.133 52.4257 295.436 52.3259 295.854 52.3624C296.23 52.3953 296.512 52.5463 296.786 52.7808C297.019 53.0116 297.157 53.3606 297.128 53.6949C297.099 54.0292 296.948 54.3108 296.633 54.536C296.36 54.7648 296.015 54.861 295.639 54.8281C295.221 54.7916 294.897 54.637 294.664 54.4061ZM293.656 69.3092C293.504 69.1274 293.396 68.9075 293.418 68.6568L294.35 58.0001C294.372 57.7494 294.474 57.5477 294.698 57.3988C294.88 57.2463 295.138 57.1846 295.43 57.2102C295.723 57.2357 295.925 57.3376 296.077 57.5194C296.23 57.7011 296.295 57.9174 296.273 58.1681L295.341 68.8248C295.32 69.0756 295.218 69.2772 295.036 69.4298C294.854 69.5823 294.596 69.644 294.345 69.6221C294.052 69.5965 293.809 69.491 293.656 69.3092Z" fill="#302A3E"/>
<path d="M310.808 59.1019C311.687 59.642 312.381 60.3764 312.848 61.3015C313.315 62.2266 313.474 63.2932 313.368 64.5052L312.853 70.3977C312.831 70.6484 312.729 70.8501 312.506 70.999C312.324 71.1515 312.066 71.2132 311.815 71.1913C311.522 71.1657 311.32 71.0639 311.126 70.8784C310.973 70.6967 310.866 70.4768 310.888 70.226L311.407 64.2917C311.524 62.9544 311.197 61.8731 310.465 61.0932C309.733 60.3134 308.675 59.8841 307.338 59.7672C306.543 59.6978 305.78 59.7574 305.085 59.9915C304.391 60.2256 303.856 60.5579 303.433 61.0683C303.012 61.5369 302.752 62.1037 302.701 62.6888L302.113 69.4171C302.091 69.6678 301.989 69.8695 301.807 70.022C301.625 70.1746 301.367 70.2363 301.116 70.2143C300.824 70.1888 300.622 70.0869 300.428 69.9015C300.275 69.7197 300.168 69.4998 300.19 69.2491L301.122 58.5924C301.143 58.3416 301.245 58.14 301.469 57.9911C301.651 57.8385 301.909 57.7769 302.202 57.8024C302.494 57.828 302.696 57.9299 302.849 58.1116C303.001 58.2934 303.067 58.5097 303.045 58.7604L302.979 59.5127C303.57 59.0169 304.279 58.6156 305.102 58.3507C305.926 58.0858 306.773 58.0335 307.693 58.1138C308.863 58.2161 309.928 58.5618 310.808 59.1019Z" fill="#302A3E"/>
<path d="M279.511 98.603C278.513 97.9684 277.785 97.1468 277.283 96.1344C276.782 95.1221 276.584 94.01 276.687 92.8398C276.793 91.6279 277.18 90.5669 277.808 89.6532C278.435 88.7395 279.295 88.0567 280.346 87.6011C281.397 87.1454 282.551 86.9515 283.764 87.0575C285.854 87.2401 287.464 88.0967 288.632 89.6726C288.747 89.8089 288.816 89.9834 288.801 90.1506C288.779 90.4013 288.636 90.5993 288.328 90.7409C288.154 90.8099 288.025 90.8407 287.857 90.8261C287.607 90.8042 287.367 90.6569 287.176 90.4297C286.718 89.8843 286.208 89.4607 285.644 89.1588C285.081 88.857 284.423 88.6731 283.67 88.6074C282.751 88.527 281.938 88.6666 281.195 88.9806C280.451 89.2946 279.856 89.8322 279.376 90.5061C278.938 91.1837 278.656 92.0012 278.575 92.9206C278.499 93.7982 278.635 94.6523 278.99 95.3993C279.346 96.1463 279.88 96.7825 280.6 97.2244C281.316 97.708 282.134 97.99 283.095 98.074C284.433 98.1909 285.508 97.9479 286.398 97.3941C286.622 97.2452 286.88 97.1836 287.089 97.2018C287.298 97.2201 287.462 97.2765 287.618 97.4165C287.854 97.6056 287.92 97.8218 287.898 98.0726C287.88 98.2815 287.781 98.4414 287.603 98.5522C286.303 99.4492 284.754 99.8192 282.957 99.6621C281.611 99.6288 280.466 99.234 279.511 98.603Z" fill="#302A3E"/>
<path d="M294.395 99.9037C293.398 99.2691 292.627 98.4438 292.126 97.4315C291.625 96.4192 291.427 95.307 291.53 94.1369C291.632 92.9667 292.023 91.864 292.692 90.9539C293.362 90.0439 294.264 89.3647 295.356 88.9127C296.449 88.4608 297.687 88.2742 298.983 88.3874C300.279 88.5007 301.466 88.8991 302.463 89.5337C303.461 90.1683 304.231 90.9936 304.732 92.006C305.234 93.0183 305.473 94.1341 305.367 95.346C305.261 96.558 304.877 97.5772 304.208 98.4872C303.539 99.3973 302.637 100.076 301.544 100.528C300.451 100.98 299.213 101.167 297.917 101.054C296.58 100.937 295.393 100.538 294.395 99.9037ZM300.661 99.0616C301.45 98.7095 302.125 98.221 302.605 97.5471C303.085 96.8731 303.364 96.0974 303.444 95.178C303.524 94.2586 303.385 93.4463 303.029 92.6993C302.673 91.9523 302.097 91.3125 301.377 90.8706C300.662 90.3869 299.802 90.1013 298.84 90.0173C297.879 89.9332 297.024 90.0691 296.194 90.4176C295.405 90.7698 294.73 91.2583 294.25 91.9322C293.728 92.6025 293.446 93.42 293.369 94.2976C293.292 95.1752 293.428 96.0293 293.826 96.7799C294.224 97.5306 294.758 98.1668 295.477 98.6086C296.193 99.0923 297.053 99.378 298.014 99.462C298.976 99.546 299.872 99.4138 300.661 99.0616Z" fill="#302A3E"/>
<path d="M310.375 101.68C309.442 101.261 308.726 100.778 308.192 100.142C308.04 99.9598 307.974 99.7435 307.989 99.5764C308.011 99.3256 308.158 99.0858 308.466 98.9443C308.686 98.8371 308.902 98.7718 309.111 98.7901C309.404 98.8157 309.643 98.963 309.792 99.1865C310.174 99.641 310.646 100.019 311.297 100.287C311.948 100.554 312.647 100.741 313.442 100.811C314.612 100.913 315.505 100.823 316.123 100.498C316.741 100.173 317.074 99.7386 317.125 99.1535C317.172 98.6102 316.92 98.1249 316.368 97.6977C315.815 97.2704 314.917 96.9393 313.682 96.6208C312.073 96.2275 310.897 95.7037 310.154 95.0492C309.411 94.3947 309.059 93.606 309.132 92.7702C309.227 91.6836 309.763 90.8462 310.776 90.3451C311.747 89.8404 312.989 89.612 314.368 89.7326C315.455 89.8275 316.402 90.0787 317.167 90.4825C317.932 90.8862 318.561 91.4043 319.008 92.075C319.115 92.295 319.184 92.4694 319.169 92.6366C319.147 92.8873 319.004 93.0853 318.696 93.2269C318.564 93.2995 318.393 93.3267 318.225 93.3121C317.891 93.2829 317.609 93.1319 317.377 92.9011C316.656 91.9958 315.563 91.4793 314.142 91.3551C313.222 91.2747 312.497 91.3798 311.924 91.6666C311.352 91.9535 311.022 92.3458 310.975 92.8891C310.927 93.4324 311.142 93.8722 311.614 94.2504C312.087 94.6285 312.984 94.9596 314.304 95.2855C316.034 95.7315 317.293 96.2626 317.991 96.9552C318.689 97.6478 318.999 98.433 318.919 99.3524C318.857 100.063 318.593 100.671 318.086 101.174C317.578 101.678 316.915 102.041 316.053 102.26C315.233 102.483 314.299 102.57 313.254 102.479C312.258 102.308 311.311 102.056 310.375 101.68Z" fill="#302A3E"/>
<path d="M358.767 87.2953C358.919 87.4771 358.985 87.6933 358.963 87.9441C358.941 88.1948 358.839 88.3965 358.615 88.5454C358.392 88.6943 358.133 88.7559 357.841 88.7303L357.297 88.6829C356.419 88.6061 355.643 88.3278 354.966 87.8896C354.288 87.4513 353.792 86.8606 353.47 86.2008C353.153 85.4993 353.009 84.7288 353.082 83.893L353.612 77.8333L351.982 77.6908C351.731 77.6689 351.529 77.5671 351.373 77.4271C351.217 77.2871 351.151 77.0709 351.17 76.8619C351.188 76.6529 351.29 76.4513 351.468 76.3405C351.646 76.2298 351.863 76.1645 352.113 76.1864L353.744 76.3288L354.051 72.8184C354.073 72.5677 354.175 72.366 354.356 72.2135C354.538 72.0609 354.796 71.9992 355.047 72.0212C355.34 72.0467 355.542 72.1486 355.736 72.334C355.889 72.5158 355.996 72.7357 355.974 72.9864L355.667 76.4969L358.468 76.7416C358.719 76.7635 358.92 76.8654 359.077 77.0054C359.233 77.1454 359.298 77.3616 359.28 77.5706C359.262 77.7795 359.163 77.9394 358.982 78.0919C358.803 78.2027 358.587 78.268 358.336 78.2461L355.535 78.0013L355.005 84.061C354.94 84.8133 355.132 85.5038 355.593 86.0074C356.051 86.5527 356.656 86.8582 357.451 86.9276L358.12 86.9861C358.412 87.0117 358.614 87.1135 358.767 87.2953Z" fill="#302A3E"/>
<path d="M372.789 78.2035C373.786 78.8381 374.557 79.6634 375.058 80.6757C375.559 81.6881 375.757 82.8002 375.647 84.0539L375.242 88.6927C375.136 89.9046 374.748 90.9656 374.075 91.9175C373.402 92.8693 372.5 93.5485 371.404 94.0422C370.308 94.536 369.115 94.6845 367.777 94.5676C366.481 94.4543 365.371 94.1467 364.408 93.5994C363.445 93.052 362.66 92.3939 362.06 91.5414C361.908 91.3596 361.88 91.1888 361.899 90.9798C361.917 90.7709 362.061 90.5729 362.284 90.424C362.462 90.3132 362.633 90.286 362.842 90.3043C363.01 90.3189 363.131 90.3717 363.295 90.4281C363.455 90.5263 363.531 90.6172 363.607 90.708C364.058 91.337 364.649 91.8097 365.372 92.2097C366.095 92.6098 366.962 92.8119 367.924 92.8959C368.843 92.9763 369.698 92.8404 370.487 92.4882C371.276 92.1361 371.912 91.6022 372.438 90.8901C372.922 90.1744 373.204 89.3568 373.291 88.3539L373.379 87.3509C372.801 88.1847 372.032 88.7912 371.068 89.2123C370.104 89.6335 369.037 89.7929 367.909 89.6942C366.613 89.581 365.464 89.228 364.508 88.597C363.552 87.9661 362.824 87.1444 362.323 86.1321C361.821 85.1198 361.624 84.0076 361.73 82.7957C361.836 81.5838 362.227 80.481 362.896 79.5709C363.566 78.6609 364.468 77.9817 365.56 77.5297C366.653 77.0778 367.887 76.933 369.183 77.0462C370.601 77.2122 371.791 77.5689 372.789 78.2035ZM370.941 87.7695C371.73 87.4174 372.405 86.9289 372.885 86.255C373.365 85.581 373.647 84.7635 373.724 83.8859C373.805 82.9665 373.665 82.1542 373.309 81.4072C372.953 80.6602 372.377 80.0204 371.658 79.5785C370.942 79.0948 370.082 78.8092 369.121 78.7252C368.159 78.6411 367.263 78.7734 366.432 79.1219C365.643 79.474 364.968 79.9625 364.488 80.6364C364.008 81.3104 363.726 82.1279 363.649 83.0055C363.569 83.9249 363.708 84.7372 364.064 85.4842C364.42 86.2312 364.996 86.871 365.716 87.3129C366.435 87.7548 367.295 88.0404 368.298 88.1281C369.26 88.2121 370.156 88.0799 370.941 87.7695Z" fill="#302A3E"/>
<path d="M337.035 79.5425C336.92 79.4062 336.889 79.2771 336.904 79.11C336.919 78.9428 336.975 78.7793 337.108 78.7067C337.244 78.5923 337.373 78.5614 337.582 78.5797L343.351 79.0838C343.519 79.0984 343.682 79.1548 343.797 79.2912C343.911 79.4275 343.942 79.5565 343.927 79.7237C343.913 79.8908 343.86 80.0126 343.723 80.127C343.587 80.2414 343.458 80.2722 343.249 80.254L337.48 79.7498C337.271 79.7316 337.149 79.6788 337.035 79.5425ZM336.72 83.1365C336.606 83.0002 336.575 82.8712 336.59 82.704C336.604 82.5368 336.661 82.3733 336.793 82.3007C336.93 82.1863 337.059 82.1554 337.268 82.1737L343.037 82.6778C343.204 82.6924 343.368 82.7488 343.482 82.8852C343.597 83.0215 343.628 83.1505 343.613 83.3177C343.598 83.4849 343.546 83.6066 343.409 83.721C343.273 83.8354 343.144 83.8662 342.935 83.848L337.166 83.3439C336.957 83.3256 336.797 83.2274 336.72 83.1365Z" fill="#302A3E"/>
<path d="M328.355 80.5528L278.648 76.2094C278.314 76.1802 278.085 75.9075 278.114 75.5732C278.143 75.2388 278.416 75.01 278.75 75.0392L328.457 79.3826C328.791 79.4118 329.02 79.6845 328.991 80.0188C328.962 80.3532 328.689 80.582 328.355 80.5528Z" fill="#302A3E"/>
<path d="M320.792 73.1126C319.204 72.9738 318.346 72.1829 317.934 71.5995C317.372 70.7924 317.167 69.7639 317.27 68.5937C317.621 64.5818 321.853 59.0562 327.622 59.5603C329.336 59.7101 330.141 60.6226 330.451 61.4077C330.627 61.8021 330.72 62.1892 330.763 62.6562C331.395 61.7007 332.078 60.6235 332.85 59.5118C333.095 59.1122 333.65 59.0343 334.008 59.2761C334.407 59.5216 334.485 60.0758 334.243 60.4337C333.038 62.1812 332.013 63.7761 331.133 65.173C330.207 66.6081 329.421 67.8869 328.654 68.9568C328.605 69.0368 328.559 69.0749 328.51 69.1548C327.648 70.3428 327.827 71.6639 328.3 72.0421C328.692 72.3711 329.398 72.0117 330.102 71.1889C330.385 70.8347 330.936 70.7986 331.29 71.0822C331.645 71.3658 331.681 71.9164 331.397 72.2706C329.755 74.1905 328.204 74.0971 327.301 73.3444C326.787 72.9626 326.462 72.3447 326.319 71.5742C324.826 72.7492 323.133 73.3171 320.792 73.1126ZM327.438 61.1865C322.714 60.7737 319.189 65.4347 318.904 68.6944C318.834 69.4885 318.985 70.1754 319.283 70.6225C319.619 71.1151 320.144 71.3715 320.938 71.4409C323.739 71.6857 325.259 70.6815 327.075 68.2293C327.12 68.1912 327.124 68.1494 327.169 68.1112C328.799 65.8534 329.527 63.3062 328.96 62.0776C328.67 61.5469 328.19 61.2523 327.438 61.1865Z" fill="#302A3E"/>
<path d="M325.415 104.047C323.827 103.908 322.969 103.117 322.557 102.534C321.995 101.727 321.79 100.698 321.893 99.5278C322.244 95.5159 326.476 89.9903 332.245 90.4944C333.959 90.6442 334.764 91.5567 335.074 92.3418C335.25 92.7362 335.343 93.1233 335.386 93.5903C336.018 92.6348 336.702 91.5576 337.473 90.4459C337.718 90.0462 338.273 89.9684 338.631 90.2102C339.03 90.4557 339.108 91.0099 338.866 91.3678C337.661 93.1152 336.636 94.7102 335.756 96.1071C334.83 97.5422 334.044 98.821 333.235 99.8873C333.186 99.9672 333.14 100.005 333.091 100.085C332.229 101.273 332.409 102.594 332.881 102.972C333.273 103.302 333.979 102.942 334.683 102.119C334.966 101.765 335.517 101.729 335.872 102.013C336.226 102.296 336.262 102.847 335.978 103.201C334.336 105.121 332.786 105.028 331.883 104.275C331.368 103.893 331.043 103.275 330.9 102.505C329.449 103.683 327.798 104.255 325.415 104.047ZM332.102 92.1243C327.378 91.7115 323.854 96.3725 323.569 99.6322C323.499 100.426 323.65 101.113 323.948 101.56C324.284 102.053 324.809 102.309 325.603 102.379C328.404 102.623 329.924 101.619 331.739 99.167C331.785 99.1289 331.789 99.0871 331.834 99.049C333.464 96.7911 334.192 94.2439 333.625 93.0153C333.338 92.4428 332.855 92.19 332.102 92.1243Z" fill="#302A3E"/>
<path d="M381.059 91.5587C379.47 91.4199 378.613 90.6291 378.2 90.0456C377.639 89.2386 377.434 88.2101 377.536 87.0399C377.887 83.028 382.119 77.5024 387.889 78.0065C389.603 78.1563 390.407 79.0688 390.718 79.8539C390.894 80.2483 390.987 80.6354 391.03 81.1024C391.661 80.1469 392.345 79.0697 393.116 77.958C393.362 77.5583 393.916 77.4804 394.274 77.7223C394.674 77.9678 394.752 78.522 394.51 78.8799C393.304 80.6273 392.28 82.2222 391.4 83.6192C390.474 85.0542 389.688 86.3331 388.879 87.3994C388.829 87.4793 388.784 87.5174 388.735 87.5974C387.873 88.7853 388.052 90.1064 388.525 90.4846C388.917 90.8136 389.622 90.4542 390.326 89.6314C390.61 89.2772 391.161 89.2411 391.515 89.5247C391.869 89.8083 391.906 90.3589 391.622 90.7131C389.98 92.633 388.429 92.5396 387.526 91.787C387.012 91.4051 386.687 90.7872 386.543 90.0167C385.089 91.2371 383.442 91.767 381.059 91.5587ZM387.742 79.6781C383.018 79.2653 379.494 83.9263 379.209 87.186C379.139 87.9801 379.29 88.667 379.588 89.1141C379.924 89.6067 380.449 89.8631 381.243 89.9325C384.044 90.1773 385.564 89.1731 387.379 86.7209C387.425 86.6828 387.428 86.641 387.474 86.6028C389.104 84.345 389.832 81.7978 389.265 80.5692C388.978 79.9967 388.495 79.7439 387.742 79.6781Z" fill="#302A3E"/>
</g>
<defs>
<filter id="filter0_d_208_9438" x="420" y="20" width="214.693" height="155.44" filterUnits="userSpaceOnUse" color-interpolation-filters="sRGB">
<feFlood flood-opacity="0" result="BackgroundImageFix"/>
<feColorMatrix in="SourceAlpha" type="matrix" values="0 0 0 0 0 0 0 0 0 0 0 0 0 0 0 0 0 0 127 0" result="hardAlpha"/>
<feOffset dx="2" dy="2"/>
<feGaussianBlur stdDeviation="8"/>
<feComposite in2="hardAlpha" operator="out"/>
<feColorMatrix type="matrix" values="0 0 0 0 0 0 0 0 0 0 0 0 0 0 0 0 0 0 0.04 0"/>
<feBlend mode="normal" in2="BackgroundImageFix" result="effect1_dropShadow_208_9438"/>
<feBlend mode="normal" in="SourceGraphic" in2="effect1_dropShadow_208_9438" result="shape"/>
</filter>
<clipPath id="clip0_208_9438">
<rect width="116.566" height="61.6342" fill="white" transform="matrix(0.875578 -0.483077 0.483162 0.875531 18.0859 113.8)"/>
</clipPath>
<clipPath id="clip1_208_9438">
<rect width="116.368" height="48.9141" fill="white" transform="matrix(0.996204 0.0870485 -0.0871089 0.996199 280.261 51)"/>
</clipPath>
</defs>
</svg>
