<svg xmlns="http://www.w3.org/2000/svg" width="44" height="44"
  viewBox="0 0 44 44" fill="none">
  <path
    d="M14.126 3.34765L13.9461 2.36396C13.4028 2.4633 13.043 2.98425 13.1423 3.52752L14.126 3.34765ZM22.771 1.76687L23.7547 1.587C23.707 1.32611 23.5576 1.09486 23.3394 0.944112C23.1212 0.793367 22.852 0.735479 22.5911 0.783185L22.771 1.76687ZM16.8928 18.4789L17.0727 19.4626C17.616 19.3633 17.9758 18.8423 17.8765 18.299L16.8928 18.4789ZM1.76636 21.2449L1.58648 20.2612C1.04321 20.3605 0.683325 20.8814 0.782665 21.4247L1.76636 21.2449ZM3.34713 29.8899L2.36344 30.0697C2.41115 30.3306 2.56054 30.5619 2.77875 30.7126C2.99696 30.8634 3.26611 30.9213 3.52701 30.8736L3.34713 29.8899ZM18.4736 27.1239L19.4573 26.9441C19.4096 26.6832 19.2602 26.4519 19.042 26.3012C18.8238 26.1504 18.5546 26.0925 18.2937 26.1402L18.4736 27.1239ZM21.2395 42.2502L20.2558 42.4301C20.3035 42.691 20.4529 42.9223 20.6711 43.073C20.8893 43.2237 21.1585 43.2816 21.4194 43.2339L21.2395 42.2502ZM29.8845 40.6695L30.0644 41.6531C30.6077 41.5538 30.9675 41.0329 30.8682 40.4896L29.8845 40.6695ZM27.1186 25.5432L26.9387 24.5595C26.3955 24.6588 26.0356 25.1798 26.1349 25.723L27.1186 25.5432ZM42.2497 22.7764L42.4296 23.7601C42.9729 23.6607 43.3327 23.1398 43.2334 22.5965L42.2497 22.7764ZM40.6689 14.1314L41.6526 13.9515C41.6049 13.6906 41.4555 13.4593 41.2373 13.3086C41.0191 13.1578 40.75 13.1 40.4891 13.1477L40.6689 14.1314ZM25.5378 16.8981L24.5541 17.078C24.6018 17.3389 24.7512 17.5702 24.9694 17.7209C25.1876 17.8716 25.4568 17.9295 25.7177 17.8818L25.5378 16.8981ZM14.3059 4.33134L22.9509 2.75056L22.5911 0.783185L13.9461 2.36396L14.3059 4.33134ZM17.8765 18.299L15.1097 3.16778L13.1423 3.52752L15.9091 18.6588L17.8765 18.299ZM1.94623 22.2285L17.0727 19.4626L16.7129 17.4952L1.58648 20.2612L1.94623 22.2285ZM4.33082 29.71L2.75005 21.065L0.782665 21.4247L2.36344 30.0697L4.33082 29.71ZM18.2937 26.1402L3.16726 28.9062L3.52701 30.8736L18.6535 28.1076L18.2937 26.1402ZM22.2232 42.0704L19.4573 26.9441L17.4899 27.3038L20.2558 42.4301L22.2232 42.0704ZM29.7046 39.6858L21.0596 41.2665L21.4194 43.2339L30.0644 41.6531L29.7046 39.6858ZM26.1349 25.723L28.9008 40.8493L30.8682 40.4896L28.1023 25.3633L26.1349 25.723ZM42.0698 21.7927L26.9387 24.5595L27.2985 26.5268L42.4296 23.7601L42.0698 21.7927ZM39.6852 14.3112L41.266 22.9562L43.2334 22.5965L41.6526 13.9515L39.6852 14.3112ZM25.7177 17.8818L40.8488 15.115L40.4891 13.1477L25.3579 15.9145L25.7177 17.8818ZM21.7873 1.94675L24.5541 17.078L26.5215 16.7183L23.7547 1.587L21.7873 1.94675Z"
    fill="#302A3E" />
</svg>